<svg viewBox="0 0 37 32" fill="none" xmlns="http://www.w3.org/2000/svg">
<mask id="path-1-inside-1_247_212" fill="white">
<path fill-rule="evenodd" clip-rule="evenodd" d="M5 0C2.23858 0 0 2.23858 0 5V19C0 21.7614 2.23858 24 5 24H6.88745L6.1251 31.0621L15.9649 24H32C34.7614 24 37 21.7614 37 19V5C37 2.23858 34.7614 0 32 0H5Z"/>
</mask>
<path d="M6.88745 24L8.8759 24.2147L9.11497 22H6.88745V24ZM6.1251 31.0621L4.13665 30.8475L3.65647 35.2956L7.29125 32.6869L6.1251 31.0621ZM15.9649 24V22H15.3215L14.7988 22.3752L15.9649 24ZM2 5C2 3.34315 3.34315 2 5 2V-2C1.13401 -2 -2 1.13401 -2 5H2ZM2 19V5H-2V19H2ZM5 22C3.34315 22 2 20.6569 2 19H-2C-2 22.866 1.13401 26 5 26V22ZM6.88745 22H5V26H6.88745V22ZM8.11355 31.2768L8.8759 24.2147L4.89901 23.7853L4.13665 30.8475L8.11355 31.2768ZM14.7988 22.3752L4.95895 29.4373L7.29125 32.6869L17.1311 25.6248L14.7988 22.3752ZM32 22H15.9649V26H32V22ZM35 19C35 20.6569 33.6569 22 32 22V26C35.866 26 39 22.866 39 19H35ZM35 5V19H39V5H35ZM32 2C33.6569 2 35 3.34315 35 5H39C39 1.13401 35.866 -2 32 -2V2ZM5 2H32V-2H5V2Z" fill="#374DCA" mask="url(#path-1-inside-1_247_212)"/>
</svg>
