<svg width="29" height="28" viewBox="0 0 29 28" fill="none" xmlns="http://www.w3.org/2000/svg">
    <path d="M15.9122 2.42859L18.006 8.27739C18.3527 9.24597 19.2574 9.90326 20.2857 9.93371L26.4952 10.1176C27.903 10.1593 28.4824 11.9427 27.3681 12.8038L22.4525 16.6025C21.6385 17.2315 21.2929 18.2951 21.5817 19.2825L23.3257 25.2449C23.7211 26.5966 22.204 27.6988 21.0407 26.9051L15.909 23.404C15.0591 22.8242 13.9409 22.8242 13.091 23.404L7.95935 26.9051C6.79598 27.6988 5.27893 26.5966 5.67429 25.2449L7.41826 19.2825C7.70707 18.2951 7.36151 17.2315 6.54748 16.6025L1.63195 12.8038C0.517584 11.9427 1.09704 10.1593 2.50476 10.1176L8.71429 9.93371C9.74261 9.90326 10.6473 9.24597 10.994 8.27739L13.0878 2.4286C13.5624 1.10266 15.4376 1.10266 15.9122 2.42859Z" fill="white" stroke="#374DCD"/>
</svg>